<?xml version="1.0" encoding="utf-8"?>
<svg version="1.1" xmlns:xlink="http://www.w3.org/1999/xlink" width="248px" height="28px" xmlns="http://www.w3.org/2000/svg">
  <g transform="matrix(1 0 0 1 -150 -358 )">
    <path d="M 151 363  A 4 4 0 0 1 155 359 L 393 359  A 4 4 0 0 1 397 363 L 397 381  A 4 4 0 0 1 393 385 L 155 385  A 4 4 0 0 1 151 381 L 151 363  Z " fill-rule="nonzero" fill="#ffffff" stroke="none" />
    <path d="M 150.5 363  A 4.5 4.5 0 0 1 155 358.5 L 393 358.5  A 4.5 4.5 0 0 1 397.5 363 L 397.5 381  A 4.5 4.5 0 0 1 393 385.5 L 155 385.5  A 4.5 4.5 0 0 1 150.5 381 L 150.5 363  Z " stroke-width="1" stroke="#0000ff" fill="none" stroke-opacity="0.87843137254902" />
  </g>
</svg>