<?xml version="1.0" encoding="utf-8"?>
<svg version="1.1" xmlns:xlink="http://www.w3.org/1999/xlink" width="63px" height="27px" xmlns="http://www.w3.org/2000/svg">
  <defs>
    <mask fill="white" id="clip1">
      <path d="M 0 27  L 0 0  L 28.8627450980378 0  L 63 0  L 63 27  L 44.5490196078403 27  L 0 27  Z " fill-rule="evenodd" />
    </mask>
  </defs>
  <g transform="matrix(1 0 0 1 -308 -133 )">
    <path d="M 0 27  L 0 0  L 28.8627450980378 0  L 63 0  L 63 27  L 44.5490196078403 27  L 0 27  Z " fill-rule="nonzero" fill="#fa871a" stroke="none" transform="matrix(1 0 0 1 308 133 )" />
    <path d="M 0 27  L 0 0  L 28.8627450980378 0  L 63 0  L 63 27  L 44.5490196078403 27  L 0 27  Z " stroke-width="2" stroke="#d65c14" fill="none" transform="matrix(1 0 0 1 308 133 )" mask="url(#clip1)" />
  </g>
</svg>