<?xml version="1.0" encoding="utf-8"?>
<svg version="1.1" xmlns:xlink="http://www.w3.org/1999/xlink" width="24px" height="21px" xmlns="http://www.w3.org/2000/svg">
  <g transform="matrix(1 0 0 1 -165 -888 )">
    <path d="M 23.703125 17.11171875  C 23.9010416666667 17.31953125  24 17.565625  24 17.85  L 24 19.95  C 24 20.234375  23.9010416666667 20.48046875  23.703125 20.68828125  C 23.5052083333333 20.89609375  23.2708333333333 21  23 21  L 1 21  C 0.729166666666667 21  0.494791666666667 20.89609375  0.296875 20.68828125  C 0.0989583333333333 20.48046875  0 20.234375  0 19.95  L 0 17.85  C 0 17.565625  0.0989583333333333 17.31953125  0.296875 17.11171875  C 0.494791666666667 16.90390625  0.729166666666667 16.8  1 16.8  L 23 16.8  C 23.2708333333333 16.8  23.5052083333333 16.90390625  23.703125 17.11171875  Z M 23.703125 8.71171875  C 23.9010416666667 8.91953125  24 9.165625  24 9.45  L 24 11.55  C 24 11.834375  23.9010416666667 12.08046875  23.703125 12.28828125  C 23.5052083333333 12.49609375  23.2708333333333 12.6  23 12.6  L 1 12.6  C 0.729166666666667 12.6  0.494791666666667 12.49609375  0.296875 12.28828125  C 0.0989583333333333 12.08046875  0 11.834375  0 11.55  L 0 9.45  C 0 9.165625  0.0989583333333333 8.91953125  0.296875 8.71171875  C 0.494791666666667 8.50390625  0.729166666666667 8.4  1 8.4  L 23 8.4  C 23.2708333333333 8.4  23.5052083333333 8.50390625  23.703125 8.71171875  Z M 23.703125 0.311718750000001  C 23.9010416666667 0.519531249999998  24 0.765624999999998  24 1.05  L 24 3.15  C 24 3.434375  23.9010416666667 3.68046875  23.703125 3.88828125  C 23.5052083333333 4.09609375  23.2708333333333 4.2  23 4.2  L 1 4.2  C 0.729166666666667 4.2  0.494791666666667 4.09609375  0.296875 3.88828125  C 0.0989583333333333 3.68046875  0 3.434375  0 3.15  L 0 1.05  C 0 0.765624999999998  0.0989583333333333 0.519531249999998  0.296875 0.311718750000001  C 0.494791666666667 0.103906249999999  0.729166666666667 0  1 0  L 23 0  C 23.2708333333333 0  23.5052083333333 0.103906249999999  23.703125 0.311718750000001  Z " fill-rule="nonzero" fill="#ffffff" stroke="none" transform="matrix(1 0 0 1 165 888 )" />
  </g>
</svg>