<?xml version="1.0" encoding="utf-8"?>
<svg version="1.1" xmlns:xlink="http://www.w3.org/1999/xlink" width="15px" height="17px" xmlns="http://www.w3.org/2000/svg">
  <g transform="matrix(1 0 0 1 -466 -137 )">
    <path d="M 9.19921875 10.42578125  C 9.98948317307692 9.53014823717949  10.3846153846154 8.45232371794872  10.3846153846154 7.19230769230769  C 10.3846153846154 5.93229166666667  9.98948317307692 4.8544671474359  9.19921875 3.95883413461538  C 8.40895432692308 3.06320112179487  7.45793269230769 2.61538461538462  6.34615384615385 2.61538461538462  C 5.234375 2.61538461538462  4.28335336538462 3.06320112179487  3.49308894230769 3.95883413461538  C 2.70282451923077 4.8544671474359  2.30769230769231 5.93229166666667  2.30769230769231 7.19230769230769  C 2.30769230769231 8.45232371794872  2.70282451923077 9.53014823717949  3.49308894230769 10.42578125  C 4.28335336538462 11.3214142628205  5.234375 11.7692307692308  6.34615384615385 11.7692307692308  C 7.45793269230769 11.7692307692308  8.40895432692308 11.3214142628205  9.19921875 10.42578125  Z M 14.6664663461538 14.7728365384615  C 14.8888221153846 15.0248397435897  15 15.3313301282051  15 15.6923076923077  C 15 16.0464743589744  14.8858173076923 16.3529647435897  14.6574519230769 16.6117788461538  C 14.4290865384615 16.8705929487179  14.1586538461538 17  13.8461538461538 17  C 13.5216346153846 17  13.2512019230769 16.8705929487179  13.0348557692308 16.6117788461538  L 9.94290865384615 13.1177884615385  C 8.8671875 13.9623397435897  7.66826923076923 14.3846153846154  6.34615384615385 14.3846153846154  C 5.48677884615385 14.3846153846154  4.66496394230769 14.1956129807692  3.88070913461538 13.8176081730769  C 3.09645432692308 13.4396033653846  2.42037259615385 12.9287860576923  1.85246394230769 12.28515625  C 1.28455528846154 11.6415264423077  0.833834134615385 10.8753004807692  0.500300480769231 9.98647836538462  C 0.166766826923077 9.09765625  0 8.16626602564102  0 7.19230769230769  C 0 6.21834935897436  0.166766826923077 5.28695913461538  0.500300480769231 4.39813701923077  C 0.833834134615385 3.50931490384615  1.28455528846154 2.74308894230769  1.85246394230769 2.09945913461538  C 2.42037259615385 1.45582932692308  3.09645432692308 0.945012019230769  3.88070913461538 0.567007211538462  C 4.66496394230769 0.189002403846153  5.48677884615385 0  6.34615384615385 0  C 7.20552884615385 0  8.02734375 0.189002403846153  8.81159855769231 0.567007211538462  C 9.59585336538462 0.945012019230769  10.2719350961538 1.45582932692308  10.83984375 2.09945913461538  C 11.4077524038462 2.74308894230769  11.8584735576923 3.50931490384615  12.1920072115385 4.39813701923077  C 12.5255408653846 5.28695913461538  12.6923076923077 6.21834935897436  12.6923076923077 7.19230769230769  C 12.6923076923077 8.69070512820513  12.3197115384615 10.0494791666667  11.5745192307692 11.2686298076923  L 14.6664663461538 14.7728365384615  Z " fill-rule="nonzero" fill="#f4ad6b" stroke="none" transform="matrix(1 0 0 1 466 137 )" />
  </g>
</svg>